<svg width="25" height="11" viewBox="0 0 25 11" fill="none" xmlns="http://www.w3.org/2000/svg">
<path fill-rule="evenodd" clip-rule="evenodd" d="M11.5301 8.16911V5.10437H13.0893C13.7282 5.10437 14.2675 4.88719 14.7071 4.45885L14.8126 4.35025C15.6157 3.46341 15.5629 2.08186 14.7071 1.26138C14.2792 0.827008 13.6931 0.591723 13.0893 0.603789H10.5864V8.16911H11.5301ZM11.5302 4.17531V1.53287H13.1131C13.4531 1.53287 13.7756 1.6656 14.0159 1.90691C14.526 2.41368 14.5377 3.2583 14.0453 3.78316C13.8049 4.04258 13.4649 4.18737 13.1131 4.17531H11.5302ZM19.2147 3.39707C18.8102 3.01699 18.2593 2.82394 17.5617 2.82394C16.6649 2.82394 15.9908 3.16178 15.5453 3.83144L16.3777 4.36837C16.6825 3.90987 17.0987 3.68061 17.6262 3.68061C17.9603 3.68061 18.2827 3.80731 18.5347 4.03656C18.7809 4.25375 18.9216 4.56746 18.9216 4.89927V5.12249C18.5582 4.91737 18.101 4.80878 17.5383 4.80878C16.8818 4.80878 16.3542 4.96563 15.9615 5.28538C15.5688 5.60513 15.3695 6.02743 15.3695 6.56437C15.3578 7.05304 15.5629 7.51757 15.9263 7.83129C16.2956 8.16913 16.7646 8.33806 17.3155 8.33806C17.9662 8.33806 18.482 8.04244 18.8747 7.45121H18.9157V8.16913H19.8184V4.9777C19.8184 4.30804 19.6191 3.77714 19.2147 3.39707ZM16.6534 7.21587C16.4599 7.07108 16.3426 6.8358 16.3426 6.58241C16.3426 6.29887 16.4716 6.06358 16.7237 5.87656C16.9817 5.68954 17.3041 5.59301 17.6851 5.59301C18.2128 5.58698 18.6231 5.70764 18.9163 5.94895C18.9163 6.3592 18.758 6.71514 18.4473 7.01679C18.1659 7.30637 17.7848 7.46926 17.3862 7.46926C17.1223 7.47529 16.8644 7.3848 16.6534 7.21587ZM21.8465 10.4436L25.0001 2.99288H23.9743L22.5148 6.70918H22.4972L21.0025 2.99288H19.9767L22.0458 7.83734L20.8735 10.4436H21.8465Z" fill="#3C4043"/>
<path d="M8.27216 4.44046C8.27216 4.14484 8.24871 3.84923 8.20182 3.55965H4.22182V5.23077H6.50197C6.40818 5.76771 6.10338 6.25034 5.6579 6.55199V7.63792H7.01778C7.81496 6.8838 8.27216 5.76771 8.27216 4.44046Z" fill="#4285F4"/>
<path d="M4.22199 8.68768C5.35914 8.68768 6.32043 8.30157 7.01796 7.63794L5.65808 6.55201C5.27707 6.81746 4.79056 6.96828 4.22199 6.96828C3.12002 6.96828 2.18803 6.2021 1.85392 5.1765H0.453005V6.29863C1.16812 7.76463 2.62765 8.68768 4.22199 8.68768Z" fill="#34A853"/>
<path d="M1.85402 5.17675C1.67814 4.63981 1.67814 4.05462 1.85402 3.51165V2.39555H0.452878C-0.150959 3.62024 -0.150959 5.06815 0.452878 6.29284L1.85402 5.17675Z" fill="#FBBC04"/>
<path d="M4.22199 1.71965C4.82574 1.70759 5.40603 1.94287 5.83979 2.37121L7.04727 1.12843C6.2794 0.392405 5.27121 -0.0118033 4.22199 0.00026256C2.62765 0.00026256 1.16812 0.929338 0.453005 2.39535L1.85392 3.51748C2.18803 2.48584 3.12002 1.71965 4.22199 1.71965Z" fill="#EA4335"/>
</svg>
