<svg width="24" height="24" viewBox="0 0 24 24" fill="none" xmlns="http://www.w3.org/2000/svg">
<path d="M17.8571 12.0003C17.8571 13.1837 18.8165 14.1431 20 14.1431C21.1835 14.1431 22.1429 13.1837 22.1429 12.0003C22.1429 10.8168 21.1835 9.85742 20 9.85742C18.8165 9.85742 17.8571 10.8168 17.8571 12.0003Z" fill="#202226"/>
<path d="M10 12.0003C10 13.1837 10.9594 14.1431 12.1429 14.1431C13.3263 14.1431 14.2857 13.1837 14.2857 12.0003C14.2857 10.8168 13.3263 9.85742 12.1429 9.85742C10.9594 9.85742 10 10.8168 10 12.0003Z" fill="#202226"/>
<path d="M2.14286 12.0003C2.14286 13.1837 3.10225 14.1431 4.28571 14.1431C5.46918 14.1431 6.42857 13.1837 6.42857 12.0003C6.42857 10.8168 5.46918 9.85742 4.28571 9.85742C3.10225 9.85742 2.14286 10.8168 2.14286 12.0003Z" fill="#202226"/>
</svg>
