<svg width="28" height="28" viewBox="0 0 28 28" fill="none" xmlns="http://www.w3.org/2000/svg">
<path d="M16.5574 14.3632C16.5574 18.4298 13.2986 21.7264 9.27869 21.7264C5.25878 21.7264 2 18.4298 2 14.3632C2 10.2966 5.25878 7 9.27869 7C13.2986 7 16.5574 10.2966 16.5574 14.3632Z" fill="#ED0006"/>
<path d="M26.0001 14.3632C26.0001 18.4298 22.7413 21.7264 18.7214 21.7264C14.7015 21.7264 11.4427 18.4298 11.4427 14.3632C11.4427 10.2966 14.7015 7 18.7214 7C22.7413 7 26.0001 10.2966 26.0001 14.3632Z" fill="#0099DF"/>
<path fill-rule="evenodd" clip-rule="evenodd" d="M14.0001 19.9672C15.5651 18.6166 16.5574 16.607 16.5574 14.363C16.5574 12.1189 15.5651 10.1093 14.0001 8.75879C12.4351 10.1093 11.4427 12.1189 11.4427 14.363C11.4427 16.607 12.4351 18.6166 14.0001 19.9672Z" fill="#6C6BBD"/>
</svg>
