<svg width="28" height="28" viewBox="0 0 28 28" fill="none" xmlns="http://www.w3.org/2000/svg">
<path fill-rule="evenodd" clip-rule="evenodd" d="M8.03776 17.7582H5.94772L4.38046 11.6924C4.30607 11.4133 4.14812 11.1667 3.91578 11.0504C3.33595 10.7582 2.69702 10.5257 2 10.4084V10.1749H5.36688C5.83155 10.1749 6.18006 10.5257 6.23815 10.9331L7.05133 15.3086L9.14035 10.1749H11.1723L8.03776 17.7582ZM12.334 17.7582H10.3601L11.9855 10.1749H13.9593L12.334 17.7582ZM16.513 12.2757C16.5711 11.8673 16.9196 11.6337 17.3262 11.6337C17.9652 11.5751 18.6612 11.6924 19.242 11.9835L19.5905 10.3508C19.0097 10.1173 18.3707 10 17.7909 10C15.8751 10 14.4811 11.0504 14.4811 12.5082C14.4811 13.6173 15.4685 14.1996 16.1655 14.5504C16.9196 14.9002 17.2101 15.1338 17.152 15.4835C17.152 16.0082 16.5711 16.2418 15.9913 16.2418C15.2943 16.2418 14.5973 16.0669 13.9593 15.7747L13.6108 17.4085C14.3079 17.6996 15.0619 17.8169 15.759 17.8169C17.9071 17.8745 19.242 16.8251 19.242 15.25C19.242 13.2665 16.513 13.1502 16.513 12.2757ZM26.15 17.7582L24.5827 10.1749H22.8993C22.5508 10.1749 22.2023 10.4084 22.0861 10.7582L19.1839 17.7582H21.2159L21.6214 16.6502H24.1181L24.3504 17.7582H26.15ZM23.1897 12.2171L23.7695 15.0751H22.1442L23.1897 12.2171Z" fill="#172B85"/>
</svg>
