<svg width="16" height="16" viewBox="0 0 16 16" fill="none" xmlns="http://www.w3.org/2000/svg">
<g clip-path="url(#clip0_417_34493)">
<path fill-rule="evenodd" clip-rule="evenodd" d="M4 0C1.79086 0 0 1.79086 0 4V12C0 14.2091 1.79086 16 4 16H12C14.2091 16 16 14.2091 16 12V4C16 1.79086 14.2091 0 12 0H4ZM7.35832 10.9675L12.4711 5.89485C12.7919 5.57405 12.7919 5.0728 12.4711 4.752C12.1503 4.43119 11.649 4.43119 11.3282 4.752L6.75682 9.32342L4.61145 7.35851C4.29065 7.05776 3.7894 7.07781 3.48865 7.39861C3.20794 7.71941 3.22799 8.22067 3.5488 8.52142L6.25556 10.9876C6.57637 11.2883 7.05757 11.2683 7.35832 10.9675Z" fill="#44B461"/>
</g>
<defs>
<clipPath id="clip0_417_34493">
<rect width="16" height="16" rx="8" fill="white"/>
</clipPath>
</defs>
</svg>
