<svg width="20" height="20" viewBox="0 0 20 20" fill="none" xmlns="http://www.w3.org/2000/svg">
<path d="M16.5625 2.70866H12.6562L12.3502 2.09993C12.218 1.8345 11.9469 1.66676 11.6504 1.667H7.9297C7.6337 1.66586 7.3631 1.83403 7.2331 2.09993L6.9271 2.70866H3.02083C2.7332 2.70866 2.5 2.94186 2.5 3.2295V4.27116C2.5 4.5588 2.7332 4.792 3.02083 4.792H16.5625C16.8501 4.792 17.0833 4.5588 17.0833 4.27116V3.2295C17.0833 2.94186 16.8501 2.70866 16.5625 2.70866Z" fill="white"/>
<path d="M4.23179 16.8691C4.28335 17.6925 4.96609 18.3339 5.79102 18.334H13.7923C14.6173 18.3339 15.3 17.6925 15.3516 16.8691L16.0417 5.83398H3.54169L4.23179 16.8691Z" fill="white"/>
</svg>
