<svg width="16" height="16" viewBox="0 0 16 16" fill="none" xmlns="http://www.w3.org/2000/svg">
<g clip-path="url(#clip0_417_34761)">
<path d="M15.6527 7.28186C15.9677 6.97493 16.0788 6.52447 15.943 6.10573C15.8068 5.68698 15.4522 5.38806 15.0164 5.32463L11.1423 4.76171C10.9773 4.73768 10.8348 4.6342 10.7611 4.48458L9.02908 0.974448C8.83461 0.580055 8.4399 0.334961 8.00001 0.334961C7.56044 0.334961 7.16573 0.580055 6.97125 0.974448L5.23894 4.4849C5.16525 4.63452 5.02236 4.738 4.85736 4.76203L0.98327 5.32495C0.547867 5.38806 0.192881 5.6873 0.0567178 6.10605C-0.0791252 6.52479 0.0320482 6.97525 0.346986 7.28218L3.15003 10.0144C3.26953 10.131 3.32432 10.2989 3.29612 10.463L2.63485 14.321C2.57622 14.6606 2.66529 14.9909 2.88507 15.2514C3.2266 15.6573 3.82284 15.781 4.29957 15.5305L7.76421 13.7088C7.90902 13.6328 8.09132 13.6335 8.23581 13.7088L11.7008 15.5305C11.8693 15.6192 12.049 15.6641 12.2345 15.6641C12.5732 15.6641 12.8942 15.5135 13.1149 15.2514C13.3351 14.9909 13.4238 14.66 13.3652 14.321L12.7036 10.463C12.6754 10.2986 12.7302 10.131 12.8497 10.0144L15.6527 7.28186Z" fill="#F2C71C"/>
</g>
<defs>
<clipPath id="clip0_417_34761">
<rect width="16" height="16" fill="white"/>
</clipPath>
</defs>
</svg>
