<svg width="25" height="11" viewBox="0 0 25 11" fill="none" xmlns="http://www.w3.org/2000/svg">
<path fill-rule="evenodd" clip-rule="evenodd" d="M3.33737 1.9558C3.80617 1.99592 4.27497 1.71509 4.56797 1.35903C4.85609 0.992945 5.04654 0.501487 4.99771 0C4.58262 0.0200593 4.06987 0.280833 3.77687 0.646919C3.50829 0.962856 3.27877 1.47437 3.33737 1.9558ZM8.91417 8.41495V0.596766H11.7709C13.2457 0.596766 14.2761 1.63986 14.2761 3.16438C14.2761 4.6889 13.2262 5.74202 11.7319 5.74202H10.0959V8.41495H8.91417ZM4.9928 2.0511C4.5798 2.02669 4.20295 2.17865 3.89855 2.3014C3.70267 2.38039 3.53679 2.44728 3.4106 2.44728C3.26898 2.44728 3.09625 2.37681 2.90232 2.29769C2.64821 2.19403 2.35769 2.0755 2.05303 2.08119C1.35471 2.09122 0.705221 2.49743 0.348737 3.14434C-0.383766 4.43818 0.158286 6.35386 0.866372 7.40698C1.21309 7.92853 1.62817 8.50023 2.17511 8.48017C2.41573 8.47084 2.58881 8.39542 2.76794 8.31736C2.97417 8.22749 3.1884 8.13414 3.52291 8.13414C3.84583 8.13414 4.05069 8.22506 4.24735 8.31234C4.43434 8.39533 4.61391 8.47503 4.88048 8.47014C5.44695 8.46011 5.80344 7.94859 6.15016 7.42704C6.52432 6.86728 6.68875 6.32098 6.7137 6.23808L6.71662 6.22849C6.71603 6.22788 6.7114 6.2257 6.70325 6.22187C6.57817 6.16306 5.62216 5.71362 5.61299 4.50839C5.60378 3.49678 6.37127 2.98423 6.49209 2.90355C6.49944 2.89864 6.5044 2.89533 6.50664 2.8936C6.01831 2.1514 5.2565 2.07116 4.9928 2.0511ZM16.4346 8.4751C17.1768 8.4751 17.8654 8.08896 18.1779 7.47714H18.2023V8.41493H19.2962V4.52339C19.2962 3.39504 18.4172 2.66788 17.0645 2.66788C15.8095 2.66788 14.8817 3.40507 14.8475 4.41807H15.9121C16 3.93665 16.4346 3.62071 17.0303 3.62071C17.7531 3.62071 18.1584 3.96674 18.1584 4.60362V5.0349L16.6836 5.12517C15.3114 5.21042 14.5691 5.78713 14.5691 6.79011C14.5691 7.80311 15.3358 8.4751 16.4346 8.4751ZM16.7519 7.54737C16.122 7.54737 15.7215 7.23644 15.7215 6.76003C15.7215 6.26858 16.1073 5.98273 16.8447 5.9376L18.1583 5.85234V6.29365C18.1583 7.02582 17.5528 7.54737 16.7519 7.54737ZM22.9245 8.72086C22.4508 10.0899 21.9088 10.5413 20.7563 10.5413C20.6684 10.5413 20.3754 10.5312 20.3071 10.5112V9.57338C20.3803 9.58341 20.561 9.59344 20.6538 9.59344C21.1763 9.59344 21.4693 9.36777 21.65 8.78103L21.7574 8.43501L19.7552 2.74313H20.9907L22.3825 7.36183H22.4069L23.7986 2.74313H25L22.9245 8.72086ZM10.0958 1.61981H11.4583C12.4838 1.61981 13.0698 2.18148 13.0698 3.16941C13.0698 4.15734 12.4838 4.72402 11.4534 4.72402H10.0958V1.61981Z" fill="black"/>
</svg>
