<svg width="24" height="24" viewBox="0 0 24 24" fill="none" xmlns="http://www.w3.org/2000/svg">
<path d="M20.8771 19.587L17.8821 16.592C19.3298 14.8135 20.0392 12.5468 19.8637 10.2603C19.6881 7.97372 18.6411 5.84192 16.9388 4.30523C15.2365 2.76854 13.009 1.94436 10.7165 2.00292C8.42395 2.06149 6.24147 2.99833 4.61987 4.61993C2.99827 6.24153 2.06142 8.42401 2.00286 10.7166C1.94429 13.0091 2.76848 15.2366 4.30517 16.9389C5.84186 18.6411 7.97366 19.6882 10.2602 19.8637C12.5468 20.0393 14.8134 19.3299 16.592 17.8821L19.587 20.8771C19.7592 21.046 19.9908 21.1406 20.232 21.1406C20.4732 21.1406 20.7048 21.046 20.8771 20.8771C21.0473 20.7056 21.1428 20.4737 21.1428 20.2321C21.1428 19.9904 21.0473 19.7586 20.8771 19.587ZM3.82716 10.9501C3.82716 9.5413 4.24491 8.16417 5.02758 6.99283C5.81025 5.82148 6.92268 4.90853 8.22421 4.36942C9.52574 3.83031 10.9579 3.68925 12.3396 3.96409C13.7213 4.23892 14.9905 4.91731 15.9866 5.91346C16.9828 6.90961 17.6612 8.17877 17.936 9.56047C18.2108 10.9422 18.0698 12.3743 17.5307 13.6759C16.9915 14.9774 16.0786 16.0898 14.9072 16.8725C13.7359 17.6552 12.3588 18.0729 10.95 18.0729C9.06185 18.0699 7.2519 17.3184 5.91676 15.9833C4.58163 14.6482 3.83021 12.8382 3.82716 10.9501Z" fill="#202226"/>
</svg>
