<svg width="24" height="24" viewBox="0 0 24 24" fill="none" xmlns="http://www.w3.org/2000/svg">
<path d="M20.4847 5.21993C18.3071 2.67399 14.6017 2.31977 11.9995 4.19996C7.81152 1.18671 2.01747 4.20347 2 9.30332C2 12.9812 3.95454 15.9678 6.80471 18.2233C9.10984 20.0474 11.4224 20.9371 11.6794 21.0329C11.8757 21.1075 12.1146 21.1112 12.3214 21.0326C12.5775 20.9372 14.8898 20.0477 17.195 18.2235C20.0459 15.9676 22 12.9815 22 9.30117C21.9949 7.80571 21.4567 6.35629 20.4847 5.21993ZM11.9999 19.7884C10.8828 19.3449 3.27646 16.0757 3.27646 9.30547C3.2911 5.02638 8.33459 2.71575 11.5851 5.49604C11.8239 5.70035 12.176 5.70035 12.4148 5.49604C15.6968 2.68875 20.7081 5.06304 20.7235 9.30432C20.7225 16.0708 13.1289 19.3399 11.9999 19.7884Z" fill="#202226"/>
<path d="M18.0021 6.93417C17.7027 7.12025 17.6109 7.51376 17.7969 7.81313C18.3419 8.69002 18.4307 10.0021 18.0405 11.4127C17.928 11.8194 18.2346 12.2213 18.656 12.2213C18.9358 12.2213 19.1925 12.0359 19.2707 11.7531C19.7628 9.97401 19.6244 8.33548 18.8811 7.13936C18.6951 6.84003 18.3015 6.748 18.0021 6.93417Z" fill="#202226"/>
<path d="M16.8924 5.58312C16.5734 5.48017 16.2309 5.41559 15.8745 5.39118C15.5229 5.367 15.2182 5.63263 15.1941 5.98429C15.17 6.33596 15.4356 6.64055 15.7872 6.66464C16.0401 6.682 16.28 6.72679 16.5003 6.79787C16.8369 6.90653 17.1958 6.72085 17.3037 6.38649C17.412 6.05107 17.2278 5.69138 16.8924 5.58312Z" fill="#202226"/>
</svg>
