<svg width="24" height="24" viewBox="0 0 24 24" fill="none" xmlns="http://www.w3.org/2000/svg">
<path d="M21.2446 10.2611L13.0868 10.2607C12.7266 10.2607 12.4346 10.5527 12.4346 10.9129V13.519C12.4346 13.8791 12.7266 14.1712 13.0868 14.1712H17.6807C17.1777 15.4767 16.2388 16.57 15.0409 17.2647L16.9998 20.6557C20.142 18.8384 21.9998 15.6497 21.9998 12.0803C21.9998 11.572 21.9623 11.2087 21.8874 10.7996C21.8304 10.4888 21.5606 10.2611 21.2446 10.2611Z" fill="#167EE6"/>
<path d="M12.0001 18.0871C9.75186 18.0871 7.7892 16.8587 6.7351 15.041L3.34424 16.9955C5.06982 19.9862 8.3024 22.0001 12.0001 22.0001C13.814 22.0001 15.5256 21.5117 17.0001 20.6606V20.6559L15.0412 17.2649C14.1452 17.7846 13.1083 18.0871 12.0001 18.0871Z" fill="#12B347"/>
<path d="M17 20.6603V20.6557L15.0411 17.2646C14.1451 17.7843 13.1083 18.0868 12 18.0868V21.9998C13.8139 21.9998 15.5256 21.5114 17 20.6603Z" fill="#0F993E"/>
<path d="M5.91305 12.0002C5.91305 10.8921 6.21547 9.85531 6.73504 8.95934L3.34418 7.00488C2.48836 8.47469 2 10.1816 2 12.0002C2 13.8188 2.48836 15.5258 3.34418 16.9956L6.73504 15.0411C6.21547 14.1452 5.91305 13.1084 5.91305 12.0002Z" fill="#FFD500"/>
<path d="M12.0001 5.91305C13.4661 5.91305 14.8128 6.43398 15.8646 7.30051C16.1241 7.51426 16.5012 7.49883 16.7389 7.26113L18.5854 5.41465C18.8551 5.14496 18.8359 4.70352 18.5478 4.45359C16.7855 2.92473 14.4925 2 12.0001 2C8.3024 2 5.06982 4.01395 3.34424 7.00465L6.7351 8.9591C7.7892 7.14141 9.75186 5.91305 12.0001 5.91305Z" fill="#FF4B26"/>
<path d="M15.8645 7.30051C16.124 7.51426 16.5012 7.49883 16.7389 7.26113L18.5854 5.41465C18.855 5.14496 18.8358 4.70352 18.5477 4.45359C16.7854 2.92469 14.4925 2 12 2V5.91305C13.466 5.91305 14.8127 6.43398 15.8645 7.30051Z" fill="#D93F21"/>
</svg>
