<svg width="12" height="12" viewBox="0 0 12 12" fill="none" xmlns="http://www.w3.org/2000/svg">
<path d="M10.2423 2.60996C9.15354 1.33699 7.30084 1.15989 5.99977 2.09998C3.90576 0.593357 1.00874 2.10173 1 4.65166C1 6.4906 1.97727 7.98392 3.40236 9.11163C4.55492 10.0237 5.71119 10.4685 5.83971 10.5165C5.93786 10.5538 6.05731 10.5556 6.16072 10.5163C6.28875 10.4686 7.44488 10.0238 8.59748 9.11177C10.023 7.9838 11 6.49076 11 4.65058C10.9974 3.90286 10.7284 3.17815 10.2423 2.60996ZM8.65187 3.19338C8.59792 3.36058 8.4184 3.45336 8.25017 3.39907C8.14003 3.36353 8.02007 3.34111 7.8936 3.33246C7.71778 3.32041 7.58499 3.16811 7.59704 2.99228C7.60909 2.81645 7.76142 2.68364 7.93724 2.69573C8.11544 2.70793 8.28669 2.74022 8.4462 2.7917C8.61392 2.84583 8.706 3.02567 8.65187 3.19338ZM9.63537 5.87632C9.58854 6.04565 9.41306 6.14593 9.24271 6.0988C9.07285 6.05184 8.97324 5.87604 9.02023 5.70615C9.21533 5.00081 9.17095 4.34479 8.89845 3.90635C8.80543 3.75666 8.85136 3.55989 9.00107 3.46687C9.15075 3.37378 9.34752 3.4198 9.44055 3.56946C9.81221 4.16752 9.8814 4.98677 9.63537 5.87632Z" fill="white"/>
</svg>
