<svg width="16" height="16" viewBox="0 0 16 16" fill="none" xmlns="http://www.w3.org/2000/svg">
<path d="M7.85184 1.33301C6.47664 1.33301 5.15777 1.8793 4.18536 2.85171C3.21295 3.82412 2.66666 5.143 2.66666 6.51819C2.66666 10.7157 7.85184 14.6663 7.85184 14.6663C7.85184 14.6663 13.037 10.7157 13.037 6.51819C13.037 5.143 12.4907 3.82412 11.5183 2.85171C10.5459 1.8793 9.22704 1.33301 7.85184 1.33301ZM7.85184 8.98733C7.36349 8.98733 6.88611 8.84252 6.48006 8.5712C6.07402 8.29989 5.75754 7.91427 5.57066 7.46309C5.38377 7.01191 5.33488 6.51545 5.43015 6.03649C5.52542 5.55752 5.76058 5.11756 6.1059 4.77225C6.45121 4.42694 6.89117 4.19177 7.37014 4.0965C7.8491 4.00123 8.34556 4.05013 8.79674 4.23701C9.24791 4.42389 9.63354 4.74037 9.90485 5.14641C10.1762 5.55246 10.321 6.02984 10.321 6.51819C10.321 7.17305 10.0608 7.80108 9.59778 8.26414C9.13473 8.72719 8.5067 8.98733 7.85184 8.98733Z" fill="#202226"/>
</svg>
