<svg width="24" height="24" viewBox="0 0 24 24" fill="none" xmlns="http://www.w3.org/2000/svg">
<path d="M20.8771 19.587L17.8821 16.592C19.3299 14.8135 20.0393 12.5468 19.8637 10.2603C19.6882 7.97372 18.6411 5.84192 16.9389 4.30523C15.2366 2.76854 13.0091 1.94436 10.7166 2.00292C8.42401 2.06149 6.24153 2.99833 4.61993 4.61993C2.99833 6.24153 2.06149 8.42401 2.00292 10.7166C1.94436 13.0091 2.76854 15.2366 4.30523 16.9389C5.84192 18.6411 7.97372 19.6882 10.2603 19.8637C12.5468 20.0393 14.8135 19.3299 16.592 17.8821L19.587 20.8771C19.7593 21.046 19.9909 21.1406 20.2321 21.1406C20.4733 21.1406 20.7049 21.046 20.8771 20.8771C21.0473 20.7056 21.1429 20.4737 21.1429 20.2321C21.1429 19.9904 21.0473 19.7586 20.8771 19.587ZM3.82722 10.9501C3.82722 9.5413 4.24497 8.16417 5.02764 6.99283C5.81031 5.82148 6.92274 4.90853 8.22427 4.36942C9.5258 3.83031 10.958 3.68925 12.3397 3.96409C13.7214 4.23892 14.9905 4.91731 15.9867 5.91346C16.9828 6.90961 17.6612 8.17877 17.9361 9.56047C18.2109 10.9422 18.0698 12.3743 17.5307 13.6759C16.9916 14.9774 16.0787 16.0898 14.9073 16.8725C13.736 17.6552 12.3588 18.0729 10.9501 18.0729C9.06191 18.0699 7.25196 17.3184 5.91683 15.9833C4.58169 14.6482 3.83027 12.8382 3.82722 10.9501Z" fill="white"/>
</svg>
